<svg width="180" height="180" viewBox="0 0 180 180" fill="none" xmlns="http://www.w3.org/2000/svg">
  <!-- Background -->
  <rect width="180" height="180" rx="40" fill="#7C3AED"/>
  
  <!-- Wrench tool icon - scaled up for better visibility -->
  <path d="M115 45C106.8 45 99.725 49.65 96.475 56.25L83.225 69.75C80.7 68.1 76.95 67.5 73.5 67.5C57.6 67.5 45 80.1 45 96C45 99.45 46.05 102.9 47.7 105.975L64.275 89.4C66 87.675 67.725 87 70.5 87C73.275 87 75 87.675 76.725 89.4L83.4 96.075C85.125 97.8 85.5 99.525 85.5 102C85.5 104.475 85.125 106.2 83.4 107.925L66.825 124.5C69.9 126.15 73.35 127.5 76.8 127.5C92.7 127.5 105 114.6 105 99C105 95.55 104.25 92.1 102.6 88.725L116.1 75.225C122.7 71.975 127.5 64.9 127.5 56.7V45H115Z" fill="white"/>
  
  <!-- Small accent circles -->
  <circle cx="124" cy="56" r="8" fill="#A78BFA"/>
  <circle cx="56" cy="124" r="8" fill="#C4B5FD"/>
</svg>

