<svg width="32" height="32" viewBox="0 0 32 32" fill="none" xmlns="http://www.w3.org/2000/svg">
  <!-- Background circle -->
  <circle cx="16" cy="16" r="15" fill="#7C3AED"/>
  
  <!-- Wrench tool icon representing facility maintenance -->
  <path d="M20.5 8C19.12 8 17.89 8.66 17.17 9.7L14.83 12.3C14.3 12.11 13.66 12 13 12C10.24 12 8 14.24 8 17C8 17.66 8.11 18.3 8.3 18.83L11.41 15.72C11.6 15.53 11.79 15.5 12 15.5C12.21 15.5 12.4 15.53 12.59 15.72L13.28 16.41C13.47 16.6 13.5 16.79 13.5 17C13.5 17.21 13.47 17.4 13.28 17.59L10.17 20.7C10.7 20.89 11.34 21 12 21C14.76 21 17 18.76 17 16C17 15.34 16.89 14.7 16.7 14.17L19.3 11.83C20.34 11.11 21 9.88 21 8.5V8H20.5Z" fill="white"/>
  
  <!-- Small connecting element -->
  <circle cx="22" cy="10" r="1.5" fill="#A78BFA"/>
</svg>

